<mxfile host="Electron" modified="2024-03-06T15:24:59.443Z" agent="Mozilla/5.0 (Windows NT 10.0; Win64; x64) AppleWebKit/537.36 (KHTML, like Gecko) draw.io/23.1.5 Chrome/120.0.6099.109 Electron/28.1.0 Safari/537.36" etag="CtkDA6mnTv7KBih-m1Y8" version="23.1.5" type="device">
  <diagram name="Page-1" id="B3CGQg9_P8BrJiR97vsx">
    <mxGraphModel dx="780" dy="496" grid="1" gridSize="10" guides="1" tooltips="1" connect="1" arrows="1" fold="1" page="1" pageScale="1" pageWidth="850" pageHeight="1100" math="0" shadow="0">
      <root>
        <mxCell id="0" />
        <mxCell id="1" parent="0" />
        <mxCell id="dvgV82xY_I8RG10Garl5-25" value="" style="rounded=1;whiteSpace=wrap;html=1;fillColor=#d5e8d4;strokeColor=#82b366;" vertex="1" parent="1">
          <mxGeometry x="120" y="390" width="490" height="160" as="geometry" />
        </mxCell>
        <mxCell id="dvgV82xY_I8RG10Garl5-13" value="" style="rounded=1;whiteSpace=wrap;html=1;fillColor=#dae8fc;strokeColor=#6c8ebf;" vertex="1" parent="1">
          <mxGeometry x="120" y="150" width="490" height="220" as="geometry" />
        </mxCell>
        <mxCell id="dvgV82xY_I8RG10Garl5-19" style="edgeStyle=orthogonalEdgeStyle;rounded=0;orthogonalLoop=1;jettySize=auto;html=1;entryX=0;entryY=0.5;entryDx=0;entryDy=0;" edge="1" parent="1" source="dvgV82xY_I8RG10Garl5-11" target="dvgV82xY_I8RG10Garl5-15">
          <mxGeometry relative="1" as="geometry" />
        </mxCell>
        <mxCell id="dvgV82xY_I8RG10Garl5-11" value="" style="rounded=1;whiteSpace=wrap;html=1;fillColor=#ffe6cc;strokeColor=#d79b00;" vertex="1" parent="1">
          <mxGeometry x="360" y="159" width="90" height="200" as="geometry" />
        </mxCell>
        <mxCell id="dvgV82xY_I8RG10Garl5-4" style="edgeStyle=orthogonalEdgeStyle;rounded=0;orthogonalLoop=1;jettySize=auto;html=1;entryX=0;entryY=0.5;entryDx=0;entryDy=0;" edge="1" parent="1" source="dvgV82xY_I8RG10Garl5-1" target="dvgV82xY_I8RG10Garl5-3">
          <mxGeometry relative="1" as="geometry" />
        </mxCell>
        <mxCell id="dvgV82xY_I8RG10Garl5-1" value="Index.js" style="rounded=1;whiteSpace=wrap;html=1;fillColor=#fff2cc;strokeColor=#d6b656;" vertex="1" parent="1">
          <mxGeometry x="130" y="230" width="80" height="40" as="geometry" />
        </mxCell>
        <mxCell id="dvgV82xY_I8RG10Garl5-3" value="App.js" style="rounded=1;whiteSpace=wrap;html=1;fillColor=#fff2cc;strokeColor=#d6b656;" vertex="1" parent="1">
          <mxGeometry x="230" y="230" width="80" height="40" as="geometry" />
        </mxCell>
        <mxCell id="dvgV82xY_I8RG10Garl5-5" value="rtr" style="rhombus;whiteSpace=wrap;html=1;fillColor=#dae8fc;strokeColor=#6c8ebf;" vertex="1" parent="1">
          <mxGeometry x="290" y="230" width="40" height="40" as="geometry" />
        </mxCell>
        <mxCell id="dvgV82xY_I8RG10Garl5-6" value="component 1" style="rounded=1;whiteSpace=wrap;html=1;fillColor=#fff2cc;strokeColor=#d6b656;" vertex="1" parent="1">
          <mxGeometry x="365" y="169" width="80" height="40" as="geometry" />
        </mxCell>
        <mxCell id="dvgV82xY_I8RG10Garl5-7" value="component 2" style="rounded=1;whiteSpace=wrap;html=1;fillColor=#fff2cc;strokeColor=#d6b656;" vertex="1" parent="1">
          <mxGeometry x="365" y="219" width="80" height="40" as="geometry" />
        </mxCell>
        <mxCell id="dvgV82xY_I8RG10Garl5-8" value="component n" style="rounded=1;whiteSpace=wrap;html=1;fillColor=#fff2cc;strokeColor=#d6b656;" vertex="1" parent="1">
          <mxGeometry x="365" y="299" width="80" height="40" as="geometry" />
        </mxCell>
        <mxCell id="dvgV82xY_I8RG10Garl5-10" value="" style="endArrow=none;dashed=1;html=1;dashPattern=1 3;strokeWidth=2;rounded=0;entryX=0.5;entryY=1;entryDx=0;entryDy=0;exitX=0.5;exitY=0;exitDx=0;exitDy=0;" edge="1" parent="1" source="dvgV82xY_I8RG10Garl5-8" target="dvgV82xY_I8RG10Garl5-7">
          <mxGeometry width="50" height="50" relative="1" as="geometry">
            <mxPoint x="415" y="289" as="sourcePoint" />
            <mxPoint x="395" y="269" as="targetPoint" />
          </mxGeometry>
        </mxCell>
        <mxCell id="dvgV82xY_I8RG10Garl5-12" style="edgeStyle=orthogonalEdgeStyle;rounded=0;orthogonalLoop=1;jettySize=auto;html=1;entryX=0.006;entryY=0.455;entryDx=0;entryDy=0;entryPerimeter=0;" edge="1" parent="1" source="dvgV82xY_I8RG10Garl5-5" target="dvgV82xY_I8RG10Garl5-11">
          <mxGeometry relative="1" as="geometry" />
        </mxCell>
        <mxCell id="dvgV82xY_I8RG10Garl5-14" value="&lt;b&gt;Reat FrontEnd&lt;/b&gt;" style="text;html=1;align=center;verticalAlign=middle;whiteSpace=wrap;rounded=0;" vertex="1" parent="1">
          <mxGeometry x="140" y="160" width="90" height="30" as="geometry" />
        </mxCell>
        <mxCell id="dvgV82xY_I8RG10Garl5-18" style="edgeStyle=orthogonalEdgeStyle;rounded=0;orthogonalLoop=1;jettySize=auto;html=1;entryX=0;entryY=0.5;entryDx=0;entryDy=0;startArrow=classicThin;startFill=1;" edge="1" parent="1" source="dvgV82xY_I8RG10Garl5-15" target="dvgV82xY_I8RG10Garl5-16">
          <mxGeometry relative="1" as="geometry" />
        </mxCell>
        <mxCell id="dvgV82xY_I8RG10Garl5-15" value="services" style="rounded=1;whiteSpace=wrap;html=1;fillColor=#ffe6cc;strokeColor=#d79b00;" vertex="1" parent="1">
          <mxGeometry x="470" y="159" width="50" height="200" as="geometry" />
        </mxCell>
        <mxCell id="dvgV82xY_I8RG10Garl5-21" style="edgeStyle=orthogonalEdgeStyle;rounded=0;orthogonalLoop=1;jettySize=auto;html=1;entryX=0.5;entryY=0;entryDx=0;entryDy=0;startArrow=classicThin;startFill=1;" edge="1" parent="1" source="dvgV82xY_I8RG10Garl5-16" target="dvgV82xY_I8RG10Garl5-20">
          <mxGeometry relative="1" as="geometry" />
        </mxCell>
        <mxCell id="dvgV82xY_I8RG10Garl5-16" value="axios" style="rhombus;whiteSpace=wrap;html=1;fillColor=#ffe6cc;strokeColor=#d79b00;" vertex="1" parent="1">
          <mxGeometry x="550" y="237.5" width="40" height="41" as="geometry" />
        </mxCell>
        <mxCell id="dvgV82xY_I8RG10Garl5-26" style="edgeStyle=orthogonalEdgeStyle;rounded=0;orthogonalLoop=1;jettySize=auto;html=1;entryX=1;entryY=0.5;entryDx=0;entryDy=0;endArrow=classicThin;endFill=1;" edge="1" parent="1" source="dvgV82xY_I8RG10Garl5-20" target="dvgV82xY_I8RG10Garl5-22">
          <mxGeometry relative="1" as="geometry" />
        </mxCell>
        <mxCell id="dvgV82xY_I8RG10Garl5-27" value="" style="edgeStyle=orthogonalEdgeStyle;rounded=0;orthogonalLoop=1;jettySize=auto;html=1;endArrow=openThin;endFill=0;startArrow=classicThin;startFill=1;" edge="1" parent="1" source="dvgV82xY_I8RG10Garl5-20" target="dvgV82xY_I8RG10Garl5-22">
          <mxGeometry relative="1" as="geometry" />
        </mxCell>
        <mxCell id="dvgV82xY_I8RG10Garl5-20" value="SpringBoot REST Controllers" style="ellipse;whiteSpace=wrap;html=1;aspect=fixed;fillColor=#dae8fc;strokeColor=#6c8ebf;" vertex="1" parent="1">
          <mxGeometry x="530" y="440" width="80" height="80" as="geometry" />
        </mxCell>
        <mxCell id="dvgV82xY_I8RG10Garl5-22" value="Application Logic" style="rounded=1;whiteSpace=wrap;html=1;fillColor=#dae8fc;strokeColor=#6c8ebf;" vertex="1" parent="1">
          <mxGeometry x="400" y="450" width="85" height="60" as="geometry" />
        </mxCell>
        <mxCell id="dvgV82xY_I8RG10Garl5-28" style="edgeStyle=orthogonalEdgeStyle;rounded=0;orthogonalLoop=1;jettySize=auto;html=1;entryX=0;entryY=0.5;entryDx=0;entryDy=0;startArrow=classicThin;startFill=1;" edge="1" parent="1" source="dvgV82xY_I8RG10Garl5-23" target="dvgV82xY_I8RG10Garl5-22">
          <mxGeometry relative="1" as="geometry" />
        </mxCell>
        <mxCell id="dvgV82xY_I8RG10Garl5-23" value="Jpa" style="rounded=1;whiteSpace=wrap;html=1;fillColor=#dae8fc;strokeColor=#6c8ebf;" vertex="1" parent="1">
          <mxGeometry x="280" y="450" width="85" height="60" as="geometry" />
        </mxCell>
        <mxCell id="dvgV82xY_I8RG10Garl5-29" style="edgeStyle=orthogonalEdgeStyle;rounded=0;orthogonalLoop=1;jettySize=auto;html=1;entryX=0;entryY=0.5;entryDx=0;entryDy=0;startArrow=classicThin;startFill=1;" edge="1" parent="1" source="dvgV82xY_I8RG10Garl5-24" target="dvgV82xY_I8RG10Garl5-23">
          <mxGeometry relative="1" as="geometry" />
        </mxCell>
        <mxCell id="dvgV82xY_I8RG10Garl5-24" value="MySQL" style="shape=cylinder3;whiteSpace=wrap;html=1;boundedLbl=1;backgroundOutline=1;size=15;fillColor=#dae8fc;strokeColor=#6c8ebf;" vertex="1" parent="1">
          <mxGeometry x="170" y="440" width="60" height="80" as="geometry" />
        </mxCell>
        <mxCell id="dvgV82xY_I8RG10Garl5-30" value="&lt;b&gt;Spring Boot Backend&lt;/b&gt;" style="text;html=1;align=center;verticalAlign=middle;whiteSpace=wrap;rounded=0;" vertex="1" parent="1">
          <mxGeometry x="140" y="400" width="90" height="30" as="geometry" />
        </mxCell>
      </root>
    </mxGraphModel>
  </diagram>
</mxfile>
